#!OML:ASF E:\Steps\Project 1\Capture day 1\Session 2\Subject.ASF
:FULLY-SPECIFIED
:DEGREES
252
root 10.0415 23.086 9.48926 -126.384 -245.009 208.737
lowerback -19.8994 -2.78551 -5.19211
upperback -1.5126 -2.40962 -0.197884
thorax 9.72321 -1.32343 2.07256
lowerneck -1.27724 -0.607464 -3.49337
upperneck 9.12679 -1.12326 6.64848
head 3.26262 -0.40648 2.79376
rclavicle -4.65156e-014 5.08889e-014
rhumerus -46.3114 -2.01226 -91.7923
rradius 71.1399
rwrist -9.20972
rhand -9.45623 -44.6642
rfingers 7.12502
rthumb 16.5072 -73.982
lclavicle -4.65156e-014 5.08889e-014
lhumerus -20.3938 -38.8021 87.4478
lradius 63.5918
lwrist 3.80873
lhand -29.3186 -22.4101
lfingers 7.12502
lthumb -2.65942 7.55302
rfemur -41.5471 5.7762 20.5383
rtibia 33.7087
rfoot 23.7328 0.0720489
rtoes -26.2905
lfemur -56.1686 -12.633 -4.34649
ltibia 45.7793
lfoot 22.0888 8.07269
ltoes -45.4352
253
root 10.0799 23.0171 9.55111 -121.275 -247.794 214.03
lowerback -19.9173 -2.94224 -5.39137
upperback -1.58771 -2.56578 -0.188336
thorax 9.67175 -1.40043 2.15295
lowerneck -0.930118 -0.639441 -3.4389
upperneck 9.14221 -1.16633 6.65327
head 3.20399 -0.427126 2.7818
rclavicle -2.98177e-014 -5.88403e-014
rhumerus -46.775 -2.03142 -91.5421
rradius 70.9229
rwrist -9.31024
rhand -7.61718 -45.2142
rfingers 7.12502
rthumb 18.2772 -74.3755
lclavicle -2.98177e-014 -5.88403e-014
lhumerus -20.5036 -38.672 85.9864
lradius 64.2936
lwrist 3.82074
lhand -29.349 -22.494
lfingers 7.12502
lthumb -2.68876 7.46881
rfemur -41.4831 6.29345 19.4633
rtibia 33.6335
rfoot 22.917 0.174454
rtoes -26.429
lfemur -56.3377 -11.8774 -5.04772
ltibia 46.7727
lfoot 21.6006 8.35437
ltoes -45.3854
254
root 10.1238 22.9349 9.62232 -115.442 -250.044 220.043
lowerback -19.9576 -2.95756 -5.70705
upperback -1.7297 -2.49073 -0.31729
thorax 9.53821 -1.3638 2.21497
lowerneck -0.49899 -0.671889 -3.38062
upperneck 9.14706 -1.20969 6.66826
head 3.12626 -0.448212 2.77216
rclavicle 1.98785e-014 7.31528e-014
rhumerus -47.446 -2.14164 -91.4509
rradius 70.7022
rwrist -8.8912
rhand -7.80223 -44.7398
rfingers 7.12502
rthumb 18.0991 -73.9177
lclavicle 1.98785e-014 7.31528e-014
lhumerus -20.6282 -38.4418 84.5568
lradius 64.9288
lwrist 4.12068
lhand -29.2398 -22.2759
lfingers 7.12502
lthumb -2.58335 7.68823
rfemur -41.3631 7.4604 18.0992
rtibia 33.4063
rfoot 22.0833 -0.109938
rtoes -25.3706
lfemur -56.2751 -10.7987 -5.85819
ltibia 47.6225
lfoot 20.9699 8.90936
ltoes -44.1135
255
root 10.1716 22.8386 9.6936 -107.964 -251.979 227.531
lowerback -20.2069 -2.97145 -5.93594
upperback -1.85263 -2.40312 -0.551857
thorax 9.53062 -1.31576 2.10852
lowerneck -0.298382 -0.691576 -3.37869
upperneck 9.14866 -1.23315 6.69839
head 3.09103 -0.458258 2.78048
rclavicle 6.44062e-014 -9.54166e-015
rhumerus -47.9871 -2.45536 -91.4796
rradius 70.5584
rwrist -8.17056
rhand -9.78604 -43.82
rfingers 7.12502
rthumb 16.1897 -73.1639
lclavicle 6.44062e-014 -9.54166e-015
lhumerus -20.3472 -38.0714 82.8596
lradius 65.3877
lwrist 4.60963
lhand -28.9446 -21.8484
lfingers 7.12502
lthumb -2.29824 8.11895
rfemur -41.4581 8.50895 16.6513
rtibia 33.2389
rfoot 21.1392 -0.234434
rtoes -24.7126
lfemur -56.4892 -9.6515 -6.69494
ltibia 48.539
lfoot 20.5084 9.01721
ltoes -43.7253
256
root 10.221 22.7328 9.75771 -98.6436 -253.655 236.751
lowerback -20.4991 -3.08913 -6.01589
upperback -2.00559 -2.49194 -0.685923
thorax 9.52563 -1.34686 1.97611
lowerneck -0.2951 -0.668107 -3.32031
upperneck 9.1629 -1.1955 6.66445
head 3.09162 -0.436001 2.75919
rclavicle 1.51076e-014 -2.38542e-014
rhumerus -48.3359 -2.75776 -91.3988
rradius 70.5117
rwrist -8.64283
rhand -9.54015 -43.5023
rfingers 7.12502
rthumb 16.4264 -72.8269
lclavicle 1.51076e-014 -2.38542e-014
lhumerus -19.9956 -37.381 81.0343
lradius 65.614
lwrist 5.09429
lhand -28.7916 -22.1795
lfingers 7.12502
lthumb -2.15043 7.78944
rfemur -41.6047 9.18361 15.4061
rtibia 33.0288
rfoot 20.0958 0.115589
rtoes -26.7144
lfemur -56.9597 -8.63006 -7.39174
ltibia 49.6075
lfoot 20.3584 8.87343
ltoes -44.1631
257
root 10.2695 22.6188 9.821 -88.2992 -254.949 246.948
lowerback -20.7935 -3.11679 -6.08591
upperback -2.22314 -2.4738 -0.716553
thorax 9.44457 -1.32516 1.98448
lowerneck -0.171118 -0.640288 -3.12454
upperneck 9.17854 -1.15122 6.57245
head 3.0667 -0.408489 2.69174
rclavicle 4.96962e-015 6.36111e-015
rhumerus -48.8698 -2.72973 -91.5012
rradius 70.1061
rwrist -7.31411
rhand -10.4458 -43.7772
rfingers 7.12502
rthumb 15.5544 -73.1716
lclavicle 4.96962e-015 6.36111e-015
lhumerus -20.2495 -36.9753 79.1569
lradius 66.7869
lwrist 5.67322
lhand -28.5847 -23.0218
lfingers 7.12502
lthumb -1.95062 6.94905
rfemur -41.7731 10.1815 14.2452
rtibia 32.7538
rfoot 19.1043 0.36323
rtoes -28.5183
lfemur -57.4601 -7.76256 -7.67024
ltibia 50.7456
lfoot 19.8442 9.56046
ltoes -43.0525
